<svg width="30" height="30" viewBox="0 0 30 30" fill="none" xmlns="http://www.w3.org/2000/svg">
<path d="M2.04545 26.2556H6.81818V14.6647L0 9.55103V24.2101C0 25.3402 0.915341 26.2556 2.04545 26.2556Z" fill="#4285F4"/>
<path d="M23.1818 26.2556H27.9546C29.0847 26.2556 30 25.3402 30 24.2101V9.55103L23.1818 14.6647V26.2556Z" fill="#34A853"/>
<path d="M23.1818 5.80097V14.6646L30 9.55097V6.82369C30 4.29585 27.1142 2.8521 25.0909 4.36915L23.1818 5.80097Z" fill="#FBBC04"/>
<path fill-rule="evenodd" clip-rule="evenodd" d="M6.81818 14.6647V5.80103L15 11.9374L23.1818 5.80103V14.6647L15 20.801L6.81818 14.6647Z" fill="#EA4335"/>
<path d="M0 6.82369V9.55097L6.81818 14.6646V5.80097L4.90909 4.36915C2.8858 2.8521 0 4.29585 0 6.82369Z" fill="#C5221F"/>
</svg>
