<svg width="8512" height="154" viewBox="0 0 8512 154" fill="none" xmlns="http://www.w3.org/2000/svg">
<path id="Vector" d="M0 59.9019L59.1111 53.9277C118.222 48.245 236.444 35.8595 354.667 42.0522C472.889 48.245 591.111 71.5588 709.333 89.6271C827.556 107.258 945.778 119.644 1064 113.451C1182.22 107.258 1300.44 83.9443 1418.67 53.9277C1536.89 24.2026 1673.78 83.9742 1792 78C1910.22 72.3173 2009.78 23.1828 2128 17.5001C2246.22 11.5259 2318.78 98.9742 2437 93C2555.22 87.3173 2688.78 22.2815 2807 22.5001C2925.22 22.2815 3042.28 57.8173 3160.5 63.5C3278.72 69.4742 3406.61 17.3498 3524.83 29.2252C3643.06 41.3922 3727.28 110.507 3845.5 81C4008 44.4774 4025.09 86.9775 4137 38.5001C4245.5 -8.49986 4380.28 47.9576 4498.5 72C4616.72 96.0425 4833.44 -32.3887 4951.67 15.4775C5069.89 63.0523 5201.78 59.9019 5320 53.9277C5438.22 48.245 5556.44 0.160227 5674.67 0.378795C5792.89 0.160227 5840.78 82.3173 5959 88.0001C6077.22 93.9743 6245.28 66.6994 6363.5 31.0001C6481.72 -4.69925 6632.28 70.8756 6750.5 59.0001C6868.72 46.8332 7015.78 -21.882 7134 19.5001C7252.22 61.1736 7329.78 101.974 7448 96.0001C7566.22 90.3173 7584.28 44.0324 7702.5 20.5C7820.72 -3.32384 7884.28 53.6762 8002.5 77.5C8120.72 101.032 8262.5 103 8333 108C8403.5 113 8512 59.5 8512 59.5V167H8452.89C8393.78 167 8275.56 167 8157.33 167C8039.11 167 7920.89 167 7802.67 167C7684.44 167 7566.22 167 7448 167C7329.78 167 7211.56 167 7093.33 167C6975.11 167 6856.89 167 6738.67 167C6620.44 167 6502.22 167 6384 167C6265.78 167 6147.56 167 6029.33 167C5911.11 167 5792.89 167 5674.67 167C5556.44 167 5438.22 167 5320 167C5201.78 167 5083.56 167 4965.33 167C4847.11 167 4728.89 167 4610.67 167C4492.44 167 4374.22 167 4256 167C4137.78 167 4019.56 167 3901.33 167C3783.11 167 3664.89 167 3546.67 167C3428.44 167 3310.22 167 3192 167C3073.78 167 2955.56 167 2837.33 167C2719.11 167 2600.89 167 2482.67 167C2364.44 167 2246.22 167 2128 167C2009.78 167 1891.56 167 1773.33 167C1655.11 167 1536.89 167 1418.67 167C1300.44 167 1182.22 167 1064 167C945.778 167 827.556 167 709.333 167C591.111 167 472.889 167 354.667 167C236.444 167 118.222 167 59.1111 167H0V59.9019Z" fill="#1C1C1C"/>
</svg>
