<svg width="70" height="70" viewBox="0 0 70 70" fill="none" xmlns="http://www.w3.org/2000/svg">
<path fill-rule="evenodd" clip-rule="evenodd" d="M33.9407 1.10771C35.0514 0.484277 36.419 0.484277 37.5282 1.10771C43.0165 4.18899 59.5321 13.464 65.0222 16.5453C66.1329 17.1671 66.8167 18.319 66.8167 19.566C66.8167 25.7286 66.8167 44.2769 66.8167 50.4395C66.8167 51.6864 66.1329 52.8383 65.0222 53.4619C59.5337 56.5432 43.0181 65.8182 37.5282 68.8994C36.4173 69.5229 35.0498 69.5229 33.9407 68.8994C28.4523 65.8182 11.9367 56.5432 6.44677 53.4619C5.33771 52.8383 4.65375 51.688 4.65375 50.4411C4.65375 44.2784 4.65375 25.7302 4.65375 19.5677C4.65375 18.3206 5.33771 17.1687 6.44841 16.5453C11.935 13.464 28.4539 4.18899 33.9407 1.10771Z" fill="#283593"/>
<path fill-rule="evenodd" clip-rule="evenodd" d="M5.15122 52.0285C4.71609 51.4459 4.65375 50.8929 4.65375 50.1484C4.65375 44.0217 4.65375 25.5798 4.65375 19.4516C4.65375 18.2113 5.33607 17.0657 6.44349 16.4472C11.9122 13.384 28.3723 4.16295 33.8408 1.09808C34.9484 0.477922 36.4485 0.490865 37.5559 1.1112C43.0247 4.17443 59.4291 13.3169 64.8979 16.3801C65.3396 16.629 65.6764 16.9283 65.9774 17.3228L5.15122 52.0285Z" fill="#5C6BC0"/>
<path fill-rule="evenodd" clip-rule="evenodd" d="M35.7352 12.0945C48.3754 12.0945 58.6374 22.3595 58.6374 35.0038C58.6374 47.6479 48.3754 57.9129 35.7352 57.9129C23.0949 57.9129 12.8331 47.6479 12.8331 35.0038C12.8331 22.3595 23.0949 12.0945 35.7352 12.0945ZM35.7352 23.5491C42.0545 23.5491 47.1862 28.6808 47.1862 35.0038C47.1862 41.3251 42.0545 46.4583 35.7352 46.4583C29.4158 46.4583 24.2841 41.3251 24.2841 35.0038C24.2841 28.6808 29.4142 23.5491 35.7352 23.5491Z" fill="white"/>
<path fill-rule="evenodd" clip-rule="evenodd" d="M65.9741 17.3384C66.8183 18.1289 66.8019 19.3201 66.8019 20.2578C66.8019 26.4678 66.7496 44.1309 66.8166 50.3409C66.8232 50.9889 66.6088 51.6712 66.2882 52.1851L35.0695 35.0032L65.9741 17.3384Z" fill="#3949AB"/>
<path fill-rule="evenodd" clip-rule="evenodd" d="M47.1862 30.0944H50.458V39.9126H47.1862V30.0944ZM58.6374 30.0944H61.909V39.9126H58.6374V30.0944Z" fill="white"/>
<path fill-rule="evenodd" clip-rule="evenodd" d="M43.9146 33.3671H53.7297V36.6398H43.9146V33.3671ZM55.3656 33.3671H65.1807V36.6398H55.3656V33.3671Z" fill="white"/>
</svg>
