<svg width="70" height="70" viewBox="0 0 70 70" fill="none" xmlns="http://www.w3.org/2000/svg">
<mask id="mask0_3_65" style="mask-type:luminance" maskUnits="userSpaceOnUse" x="5" y="1" width="60" height="68">
<path d="M5.28113 1.79468H64.7111V68.1897H5.28113V1.79468Z" fill="white"/>
</mask>
<g mask="url(#mask0_3_65)">
<path d="M64.7022 1.79462H5.2901L10.5323 61.2007L34.9962 68.1896L59.4601 61.2007L64.7022 1.79462Z" fill="#0277BD"/>
</g>
<path d="M34.9969 7.03748V62.7742L54.5679 57.183L58.9365 7.03748H34.9969Z" fill="#039BE5"/>
<path d="M50.8984 15.7734H34.9969V22.7623H43.5593L43.035 29.7511H34.9969V36.7402H42.6856L42.1613 44.6028L34.9969 47.0488V54.3873L48.8015 49.8444L50.0246 29.7511L50.8984 15.7734Z" fill="white"/>
<path d="M34.9969 15.7734V22.7623H19.4448L18.9206 15.7734H34.9969ZM26.9587 29.7511L27.3082 36.7402H34.9969V29.7511H26.9587ZM27.6576 40.2345H20.668L21.1923 49.8444L34.9969 54.3873V47.0488L27.8324 44.6028L27.6576 40.2345Z" fill="#EEEEEE"/>
</svg>
