<svg width="70" height="70" viewBox="0 0 70 70" fill="none" xmlns="http://www.w3.org/2000/svg">
<mask id="mask0_5_81" style="mask-type:luminance" maskUnits="userSpaceOnUse" x="5" y="1" width="60" height="68">
<path d="M5.53818 1.53925H64.4782V68.4592H5.53818V1.53925Z" fill="white"/>
</mask>
<g mask="url(#mask0_5_81)">
<path d="M10.8886 61.7481L5.52136 1.57013H64.4947L59.1233 61.7397L34.9704 68.43L10.8886 61.7481Z" fill="#E44D26"/>
</g>
<path d="M54.5231 57.9081L59.115 6.49133H35.0082V63.3177L54.5231 57.9081Z" fill="#F16529"/>
<path d="M34.983 13.8712H16.4943L18.4862 36.1905H35.0082V28.8106H25.2392L24.564 21.2531H35.0082V13.8712H34.983ZM35.0082 47.9539L34.9768 47.9623L26.7544 45.7435L26.2319 39.8574H18.8163L19.851 51.4455L34.9746 55.6244L35.0082 55.6138V47.9539Z" fill="#EBEBEB"/>
<path d="M34.983 36.1905H44.0748L43.2389 45.76L35.004 47.9811V55.6598L50.1402 51.4663L52.1677 28.8064H35.0082L34.983 36.1905ZM53.3004 15.852L53.476 13.8712H34.9789V21.2509H52.8114L52.9577 19.5921L53.3004 15.852Z" fill="white"/>
</svg>
