<svg width="70" height="70" viewBox="0 0 70 70" fill="none" xmlns="http://www.w3.org/2000/svg">
<path d="M26.4527 52.8419C26.4527 52.8419 23.9185 54.3166 28.2563 54.8159C33.5125 55.4151 36.197 55.3287 41.9882 54.232C41.9882 54.232 43.5109 55.1865 45.6384 56.0141C32.6561 61.5793 16.2559 55.6916 26.4527 52.8419Z" fill="#5382A1"/>
<path d="M24.8662 45.5807C24.8662 45.5807 22.0237 47.6854 26.365 48.1348C31.9783 48.7128 36.412 48.7608 44.083 47.2822C44.083 47.2822 45.1449 48.3594 46.8136 48.9471C31.1161 53.5366 13.6329 49.31 24.8658 45.5807" fill="#5382A1"/>
<path d="M38.2401 33.2628C41.4392 36.948 37.399 40.2625 37.399 40.2625C37.399 40.2625 45.5232 36.0685 41.7924 30.8163C38.3072 25.9196 35.6363 23.4865 50.1011 15.0973C50.1011 15.0973 27.3969 20.7673 38.2401 33.2628Z" fill="#E76F00"/>
<path d="M55.4103 58.2137C55.4103 58.2137 57.2863 59.7595 53.346 60.9559C45.8516 63.2258 22.1546 63.9114 15.5723 61.0461C13.2065 60.0169 17.644 58.5881 19.0398 58.2868C20.4956 57.9718 21.3276 58.0312 21.3276 58.0312C18.696 56.1762 4.31795 61.6703 14.0244 63.2449C40.4941 67.537 62.2767 61.3112 55.4101 58.2137" fill="#5382A1"/>
<path d="M27.6715 38.057C27.6715 38.057 15.618 40.9203 23.4031 41.9592C26.69 42.4009 33.2436 42.301 39.346 41.7884C44.3346 41.3678 49.3443 40.473 49.3443 40.473C49.3443 40.473 47.5856 41.2276 46.3125 42.0955C34.0712 45.3159 10.4262 43.8182 17.2331 40.5247C22.9906 37.7422 27.6715 38.057 27.6715 38.057Z" fill="#5382A1"/>
<path d="M49.2943 50.144C61.7372 43.6783 55.9824 37.464 51.9673 38.3012C50.9842 38.5069 50.5445 38.6835 50.5445 38.6835C50.5445 38.6835 50.9093 38.1111 51.6082 37.8635C59.5521 35.0714 65.6621 46.1017 49.043 50.4705C49.043 50.4705 49.2367 50.2977 49.2943 50.144Z" fill="#5382A1"/>
<mask id="mask0_5_158" style="mask-type:luminance" maskUnits="userSpaceOnUse" x="26" y="1" width="18" height="37">
<path d="M26.4603 1.55652H43.5869V37.9407H26.4603V1.55652Z" fill="white"/>
</mask>
<g mask="url(#mask0_5_158)">
<path d="M41.7919 1.55054C41.7919 1.55054 48.6834 8.44426 35.2554 19.0449C24.4893 27.5477 32.8016 32.3967 35.2516 37.9367C28.9667 32.266 24.3546 27.2732 27.4488 22.6278C31.9911 15.8074 44.5722 12.5008 41.7919 1.55035" fill="#E76F00"/>
</g>
<path d="M28.8941 67.6675C40.8381 68.4318 59.1773 67.2431 59.6112 61.5915C59.6112 61.5915 58.7759 63.7327 49.7416 65.434C39.5473 67.3525 26.9739 67.1297 19.5178 65.8989C19.5178 65.8989 21.0441 67.1623 28.8936 67.6675" fill="#5382A1"/>
</svg>
