<svg width="70" height="70" viewBox="0 0 70 70" fill="none" xmlns="http://www.w3.org/2000/svg">
<mask id="mask0_5_74" style="mask-type:luminance" maskUnits="userSpaceOnUse" x="2" y="2" width="66" height="66">
<path d="M2.14331 2.14355H67.8733V67.8736H2.14331V2.14355Z" fill="white"/>
</mask>
<g mask="url(#mask0_5_74)">
<path d="M2.14331 2.14355H67.8733V67.8736H2.14331V2.14355Z" fill="#FFD600"/>
</g>
<path d="M45.1199 51.3439C46.3834 53.3961 47.7564 55.3625 50.6649 55.3625C53.108 55.3625 54.3896 54.1484 54.3896 52.4686C54.3896 50.4583 53.064 49.7444 50.3765 48.5741L48.903 47.946C44.6505 46.1422 41.8225 43.8818 41.8225 39.1072C41.8225 34.7068 45.191 31.3583 50.4549 31.3583C54.2033 31.3583 56.8965 32.6564 58.8392 36.0562L54.2491 38.9903C53.2394 37.1864 52.1475 36.4762 50.4549 36.4762C48.7277 36.4762 47.6341 37.5661 47.6341 38.9903C47.6341 40.7504 48.7295 41.4626 51.2582 42.5525L52.7317 43.1807C57.7436 45.3149 60.5701 47.495 60.5701 52.3955C60.5701 57.676 56.3998 60.5698 50.8018 60.5698C45.3261 60.5698 42.2168 57.822 40.4859 54.4204L45.1199 51.3439ZM23.9657 51.4935C24.8896 53.1478 26.2938 54.4204 28.313 54.4204C30.2447 54.4204 31.3567 53.6572 31.3567 50.6902V31.3565H37.4422V51.6252C37.4422 57.7726 33.8764 60.5698 28.669 60.5698C23.9639 60.5698 20.5678 57.3819 19.1838 54.4204L23.9657 51.4935Z" fill="#000001"/>
</svg>
