<svg width="70" height="70" viewBox="0 0 70 70" fill="none" xmlns="http://www.w3.org/2000/svg">
<mask id="mask0_5_178" style="mask-type:luminance" maskUnits="userSpaceOnUse" x="1" y="39" width="29" height="14">
<path d="M1.44702 39.2468H29.167V52.753H1.44702V39.2468Z" fill="white"/>
</mask>
<g mask="url(#mask0_5_178)">
<path d="M1.48914 49.6865H3.69723V40.9666L7.11557 48.5711C7.5188 49.4878 8.07114 49.8173 9.15377 49.8173C10.2364 49.8173 10.7672 49.4915 11.171 48.5711L14.5897 40.9666V49.6898H16.7982V40.981C16.7982 40.1315 16.4577 39.7207 15.7573 39.5085C14.0802 38.9846 12.9547 39.4377 12.4454 40.5705L9.09088 48.0755L5.8419 40.5672C5.35354 39.4345 4.2071 38.9813 2.52984 39.5052C1.82893 39.7176 1.48914 40.1284 1.48914 40.9777V49.6865ZM18.6335 42.5867H20.8409V47.3928C20.8203 47.6542 20.9245 48.267 22.1342 48.2856C22.7515 48.2955 26.8973 48.2856 26.936 48.2856V42.5628H29.1483C29.1581 42.5628 29.1459 50.3659 29.1462 50.3993C29.1583 52.3238 26.7591 52.7419 25.6537 52.7742H18.6816V51.288L25.6661 51.2876C27.0871 51.137 26.9196 50.4308 26.9196 50.1928V49.6133H22.2265C20.043 49.5936 18.6528 48.6398 18.6353 47.5432C18.6337 47.4449 18.6825 42.6337 18.634 42.5863L18.6335 42.5867Z" fill="#00618A"/>
</g>
<path d="M30.8505 49.6871H37.1988C37.9418 49.6871 38.664 49.5316 39.2377 49.2622C40.1933 48.8234 40.6603 48.2286 40.6603 47.4496V45.8356C40.6603 45.1981 40.1295 44.6037 39.0895 44.2072C38.5373 43.9943 37.8579 43.8814 37.1999 43.8814H34.5244C33.633 43.8814 33.208 43.6122 33.1021 43.0178C33.0808 42.947 33.0808 42.8867 33.0808 42.8192V41.8141C33.0808 41.7576 33.0808 41.7005 33.1021 41.6298C33.208 41.1768 33.4417 41.049 34.2272 40.975C34.291 40.975 34.3758 40.9606 34.44 40.9606H40.7458V39.4884H34.5461C33.6541 39.4884 33.1873 39.5449 32.7623 39.6723C31.4442 40.0832 30.8707 40.738 30.8707 41.8708V43.1594C30.8707 44.1509 31.9965 45.0004 33.8856 45.1985C34.0984 45.2125 34.3104 45.2266 34.5224 45.2266H36.8156C36.9007 45.2266 36.9859 45.2266 37.0493 45.241C37.7497 45.2977 38.0475 45.4251 38.2595 45.6798C38.3904 45.8106 38.4296 45.9351 38.4296 46.0726V47.3612C38.4296 47.5171 38.3237 47.7156 38.1113 47.8851C37.9201 48.0554 37.6016 48.1682 37.1769 48.1968C37.0918 48.1968 37.0283 48.2109 36.9436 48.2109H30.8499V49.6834L30.8505 49.6871ZM54.4348 47.1242C54.4348 48.6394 55.5599 49.4891 57.8318 49.659C58.0438 49.6754 58.256 49.6847 58.4686 49.6871H64.2226V48.2145H58.4261C57.1311 48.2145 56.6425 47.8888 56.6425 47.1098V39.4913H54.4344V47.1235L54.4348 47.1242ZM42.0689 47.2008V41.951C42.0689 40.6172 43.0049 39.8081 44.8559 39.5528C45.0535 39.5245 45.2522 39.5105 45.4518 39.5103H49.6433C49.85 39.5105 50.0556 39.5245 50.2605 39.5528C52.1115 39.8081 53.0474 40.6168 53.0474 41.951V47.2008C53.0474 48.2829 52.6498 48.862 51.7334 49.2395L53.9085 51.2039H51.3446L49.5849 49.6147L47.8134 49.727H45.4518C45.0477 49.727 44.6222 49.6701 44.1539 49.5423C42.7466 49.1593 42.0692 48.4214 42.0692 47.2008H42.0689ZM44.4523 47.0699C44.4523 47.141 44.4737 47.2117 44.495 47.297C44.6259 47.9074 45.197 48.2479 46.0658 48.2479H48.0719L46.2295 46.5837H48.7932L50.3969 48.0351C50.6931 47.8773 50.8878 47.6356 50.9532 47.3257C50.9745 47.2549 50.9745 47.1838 50.9745 47.1128V42.0789C50.9745 42.0224 50.9745 41.9481 50.9532 41.8803C50.8223 41.313 50.2509 40.9865 49.4001 40.9865H46.0716C45.09 40.9865 44.4551 41.4121 44.4551 42.0789V47.0737L44.4523 47.0699Z" fill="#E48E00"/>
<path d="M66.164 37.0478C64.8069 37.0112 63.7698 37.1371 62.8835 37.511C62.6316 37.6175 62.23 37.62 62.1888 37.9359C62.3271 38.081 62.349 38.2978 62.4588 38.4762C62.6704 38.819 63.0281 39.2783 63.3465 39.5186C63.6947 39.7816 64.0534 40.0631 64.4275 40.2913C65.092 40.6966 65.8335 40.9281 66.473 41.3338C66.85 41.5728 67.2244 41.874 67.5923 42.1443C67.7738 42.2779 67.8965 42.4856 68.1322 42.5691V42.5304C68.0079 42.3722 67.9762 42.1549 67.8623 41.9903L67.3606 41.4882C66.8697 40.8335 66.2471 40.2649 65.5851 39.7891C65.0571 39.4099 63.8753 38.8979 63.6551 38.283L63.6165 38.2444C63.9909 38.2019 64.4292 38.0666 64.7751 37.9744C65.3554 37.8187 65.874 37.8588 66.4736 37.7042L67.2842 37.4724V37.318C66.9812 37.0068 66.7652 36.5954 66.4351 36.3141C65.571 35.5774 64.6275 34.8424 63.6564 34.2285C63.1177 33.8881 62.4522 33.6674 61.8811 33.379C61.6889 33.282 61.3515 33.2317 61.2248 33.0698C60.9251 32.6876 60.7618 32.2023 60.5305 31.7603C60.0461 30.8273 59.5702 29.8077 59.1409 28.8259C58.8479 28.1563 58.6565 27.4959 58.2919 26.8951C56.5394 24.0127 54.6527 22.2729 51.7309 20.5634C51.1091 20.1999 50.3606 20.0559 49.5693 19.8683L48.2954 19.791C48.0364 19.6829 47.7666 19.3653 47.5232 19.2115C46.5551 18.5992 44.0721 17.269 43.3551 19.015C42.9025 20.1193 44.0314 21.1968 44.4358 21.7566C44.719 22.1495 45.0824 22.5892 45.2847 23.0309C45.4178 23.3209 45.4411 23.612 45.555 23.9192C45.8354 24.6722 46.0795 25.4982 46.4424 26.1971C46.6258 26.5507 46.828 26.9233 47.06 27.2396C47.2024 27.4337 47.4463 27.5192 47.4846 27.8191C47.2463 28.1531 47.2325 28.6702 47.0983 29.0933C46.4953 30.9961 46.7226 33.361 47.6 34.7693C47.8694 35.2016 48.5032 36.1287 49.3755 35.7732C50.138 35.4622 49.9647 34.4996 50.1862 33.6497C50.2352 33.4565 50.2051 33.3157 50.3019 33.1865V33.2252L50.9968 34.6149C51.5107 35.4433 52.4236 36.3092 53.1967 36.8936C53.5976 37.1964 53.9168 37.7203 54.4317 37.8975V37.8588H54.3933C54.2926 37.7017 54.1357 37.6372 54.007 37.5117C53.7049 37.2153 53.3688 36.8471 53.119 36.5079C52.4156 35.5525 51.7943 34.5076 51.2281 33.4189C50.9578 32.8994 50.7225 32.3261 50.4951 31.7973C50.4075 31.5933 50.4084 31.2852 50.2252 31.1795C49.9754 31.5672 49.6076 31.8802 49.4145 32.3378C49.1055 33.0693 49.0656 33.9611 48.9513 34.8864C48.8837 34.9104 48.9138 34.8938 48.8742 34.925C48.3368 34.7952 48.1476 34.2416 47.948 33.7666C47.4427 32.5651 47.3492 30.6315 47.7936 29.2492C47.9081 28.8917 48.4283 27.7648 48.218 27.4343C48.1175 27.1047 47.7859 26.9106 47.6003 26.6617C47.3714 26.3507 47.1415 25.94 46.9829 25.5806C46.5691 24.6443 46.3761 23.5934 45.9408 22.6462C45.7328 22.1938 45.3811 21.736 45.0918 21.3366C44.7719 20.8913 44.4135 20.5626 44.1658 20.0271C44.0774 19.8355 43.9576 19.5294 44.0885 19.332C44.0947 19.3035 44.1049 19.2766 44.1188 19.2512C44.1328 19.2257 44.1499 19.2027 44.1705 19.1821C44.1909 19.1617 44.2141 19.1444 44.2394 19.1304C44.265 19.1165 44.2919 19.1063 44.3202 19.1001C44.544 18.9277 45.1679 19.1573 45.4008 19.2547C46.0193 19.5121 46.5365 19.7569 47.0608 20.1043C47.3127 20.268 47.567 20.594 47.8711 20.6837H48.218C48.7612 20.8089 49.37 20.723 49.8772 20.8769C50.7746 21.1496 51.5783 21.5743 52.3088 22.0352C54.5336 23.4405 56.3522 25.4409 57.5965 27.8302C57.7968 28.2143 57.8832 28.5813 58.0595 28.9885C58.4153 29.807 58.8634 30.6559 59.2174 31.4595C59.5709 32.2616 59.9145 33.0702 60.414 33.7374C60.6765 34.0878 61.6902 34.2764 62.1507 34.4707C62.4737 34.6073 63.0025 34.7498 63.3086 34.9341C63.8928 35.2867 64.459 35.7067 65.0072 36.0931C65.281 36.2862 66.1232 36.7097 66.1649 37.0582L66.164 37.0478Z" fill="#00618A"/>
<path fill-rule="evenodd" clip-rule="evenodd" d="M48.9138 22.3375C48.6307 22.3324 48.4307 22.3683 48.2189 22.4148V22.4535H48.2575C48.3924 22.7311 48.6307 22.9096 48.7976 23.1485L49.1837 23.9592L49.2224 23.9205C49.4612 23.7519 49.5709 23.4825 49.5693 23.0709C49.4734 22.9701 49.4594 22.8437 49.3762 22.7233C49.266 22.5628 49.0488 22.4719 48.913 22.337L48.9138 22.3375Z" fill="#00618A"/>
<path fill-rule="evenodd" clip-rule="evenodd" d="M65.2609 48.1728C65.2609 49.1451 66.029 49.8007 66.888 49.8007C67.7471 49.8007 68.5151 49.1451 68.5151 48.1728C68.5151 47.2004 67.7471 46.5449 66.888 46.5449C66.029 46.5449 65.2609 47.2004 65.2609 48.1728ZM68.1507 48.1728C68.1507 48.9107 67.5867 49.4621 66.8875 49.4621C66.1805 49.4621 65.6242 48.9107 65.6242 48.1728C65.6242 47.4349 66.1798 46.8834 66.8875 46.8834C67.5862 46.8834 68.1507 47.4349 68.1507 48.1728ZM67.3259 49.1019H67.6903L67.1567 48.286C67.4431 48.2555 67.6598 48.1165 67.6598 47.7779C67.6598 47.4001 67.4208 47.2442 66.9613 47.2442H66.2365V49.1023H66.5489V48.2991H66.8397L67.3257 49.1023L67.3259 49.1019ZM66.5489 48.0379V47.5041H66.909C67.0956 47.5041 67.3213 47.539 67.3213 47.7563C67.3213 48.0166 67.1175 48.0386 66.8829 48.0386H66.5489V48.0379Z" fill="#E48E00"/>
</svg>
