<svg width="70" height="70" viewBox="0 0 70 70" fill="none" xmlns="http://www.w3.org/2000/svg">
<mask id="mask0_5_103" style="mask-type:luminance" maskUnits="userSpaceOnUse" x="1" y="17" width="68" height="36">
<path d="M1.10962 17.4059H68.9046V52.5926H1.10962V17.4059Z" fill="white"/>
</mask>
<g mask="url(#mask0_5_103)">
<mask id="mask1_5_103" style="mask-type:luminance" maskUnits="userSpaceOnUse" x="1" y="17" width="68" height="36">
<path d="M1.10956 35.0048C1.10956 44.7157 16.2863 52.5883 35.0061 52.5883C53.726 52.5883 68.9027 44.7157 68.9027 35.0048C68.9027 25.294 53.726 17.4215 35.0061 17.4215C16.2863 17.4215 1.10956 25.2943 1.10956 35.0048Z" fill="white"/>
</mask>
<g mask="url(#mask1_5_103)">
<mask id="mask2_5_103" style="mask-type:luminance" maskUnits="userSpaceOnUse" x="1" y="17" width="68" height="36">
<path d="M1.10944 35.0041C1.10944 44.7149 16.2861 52.5876 35.006 52.5876C53.7259 52.5876 68.9026 44.7149 68.9026 35.0041C68.9026 25.2932 53.7259 17.4208 35.006 17.4208C16.2861 17.4208 1.10944 25.2936 1.10944 35.0041Z" fill="white"/>
</mask>
<g mask="url(#mask2_5_103)">
<path d="M1.10944 17.4208V52.5876H68.9026V17.4208H1.10944Z" fill="url(#paint0_radial_5_103)"/>
</g>
</g>
</g>
<path d="M35.0062 51.2828C52.9955 51.2828 67.5788 43.9952 67.5788 35.0051C67.5788 26.0152 52.9955 18.7275 35.0062 18.7275C17.0171 18.7275 2.43378 26.0152 2.43378 35.0051C2.43378 43.9952 17.0171 51.2828 35.0062 51.2828Z" fill="#777BB3"/>
<path d="M19.5254 37.0222C21.0047 37.0222 22.1089 36.7533 22.8074 36.2232C23.4987 35.6984 23.9761 34.7891 24.2264 33.5207C24.4597 32.3351 24.3708 31.5073 23.9622 31.0607C23.5446 30.6044 22.6415 30.3729 21.2782 30.3729H18.9144L17.6039 37.0224H19.5254V37.0222ZM11.7943 45.2134C11.6845 45.2134 11.5804 45.1651 11.5106 45.0815C11.4756 45.0395 11.4514 44.9925 11.4379 44.94C11.4244 44.8875 11.4229 44.8346 11.4333 44.7816L14.9064 27.1607C14.9104 27.1401 14.9162 27.1203 14.9239 27.1008C14.9313 27.0813 14.9404 27.0625 14.9514 27.0444C14.9621 27.0266 14.9745 27.0096 14.9882 26.9938C15.0021 26.9779 15.0172 26.9633 15.0334 26.9502C15.0498 26.9369 15.0671 26.925 15.0857 26.9146C15.1041 26.9044 15.1233 26.8957 15.1431 26.8886C15.163 26.8816 15.1834 26.8762 15.2044 26.8727C15.2252 26.8691 15.2463 26.8672 15.2675 26.8672H22.7527C25.1052 26.8672 26.8561 27.496 27.9568 28.7396C29.0631 29.9884 29.4049 31.7344 28.9722 33.9285C28.7961 34.8225 28.4933 35.6526 28.0724 36.3962C27.6505 37.1403 27.0935 37.8288 26.4161 38.443C25.6049 39.1914 24.6868 39.7343 23.6899 40.0537C22.7086 40.3689 21.4488 40.5289 19.9447 40.5289H16.9137L16.0482 44.9201C16.044 44.9406 16.0384 44.9606 16.0307 44.9801C16.0233 44.9996 16.0141 45.0184 16.0032 45.0363C15.9924 45.0543 15.9801 45.0713 15.9664 45.0871C15.9525 45.103 15.9374 45.1176 15.9212 45.1307C15.9048 45.144 15.8874 45.1558 15.869 45.1662C15.8506 45.1764 15.8315 45.1852 15.8114 45.1923C15.7916 45.1994 15.7711 45.2047 15.7504 45.2083C15.7294 45.2118 15.7084 45.2136 15.6873 45.2136H11.7934L11.7943 45.2134Z" fill="black"/>
<path d="M19.2177 30.736H21.2783C22.9237 30.736 23.4954 31.0922 23.6895 31.3042C24.0118 31.6566 24.0725 32.3994 23.8654 33.4523C23.6328 34.631 23.2015 35.4668 22.5833 35.936C21.9504 36.4166 20.9216 36.6601 19.5258 36.6601H18.0508L19.2182 30.736H19.2177ZM22.7523 26.5046H15.2674C15.2251 26.5046 15.183 26.5083 15.1415 26.5154C15.0997 26.5225 15.0589 26.5333 15.019 26.5473C14.9791 26.5615 14.9408 26.5788 14.9039 26.5994C14.8671 26.6202 14.8323 26.6437 14.7997 26.6703C14.767 26.697 14.7368 26.7261 14.7093 26.7577C14.6817 26.7894 14.6571 26.8233 14.6354 26.8592C14.6137 26.8951 14.5953 26.9325 14.5804 26.9715C14.5652 27.0105 14.5536 27.0506 14.5456 27.0916L11.0725 44.7136C11.0674 44.7398 11.0638 44.7663 11.0616 44.7927C11.0594 44.8193 11.0587 44.8459 11.0594 44.8725C11.0601 44.8993 11.0625 44.9258 11.0662 44.9522C11.07 44.9786 11.0751 45.0047 11.0818 45.0306C11.0884 45.0565 11.0966 45.0818 11.1061 45.1068C11.1156 45.1317 11.1263 45.1562 11.1385 45.1799C11.1507 45.2038 11.1644 45.2267 11.1792 45.249C11.1939 45.2714 11.21 45.2927 11.2271 45.3133C11.2443 45.3339 11.2627 45.3536 11.282 45.372C11.3013 45.3906 11.3217 45.4081 11.3431 45.4245C11.3644 45.4409 11.3866 45.456 11.4096 45.4701C11.4327 45.4839 11.4564 45.4967 11.4809 45.508C11.5053 45.5193 11.5303 45.5293 11.556 45.5381C11.5815 45.5466 11.6076 45.5539 11.6338 45.5598C11.6602 45.5656 11.6869 45.57 11.7138 45.5729C11.7406 45.5758 11.7676 45.5773 11.7946 45.5773H15.6873C15.7295 45.5773 15.7717 45.5738 15.8134 45.5665C15.8551 45.5594 15.896 45.5488 15.9357 45.5346C15.9756 45.5206 16.0139 45.5033 16.0507 45.4825C16.0876 45.4619 16.1224 45.4384 16.155 45.4117C16.1878 45.3851 16.2179 45.356 16.2454 45.3242C16.2731 45.2925 16.2977 45.2588 16.3194 45.2229C16.3411 45.187 16.3594 45.1494 16.3745 45.1104C16.3896 45.0714 16.4013 45.0315 16.4093 44.9905L17.217 40.8926H19.9449C21.4874 40.8926 22.7861 40.7267 23.8043 40.3996C24.8512 40.0642 25.815 39.4953 26.6676 38.7091C27.3727 38.0692 27.9548 37.3512 28.3937 36.5742C28.8327 35.7975 29.1502 34.9309 29.3338 33.999C29.7893 31.6894 29.4193 29.8398 28.2342 28.5022C27.0606 27.1775 25.2164 26.5057 22.7531 26.5057M17.1585 37.3865H19.5263C21.0957 37.3865 22.2647 37.0952 23.0327 36.5119C23.8007 35.9288 24.3189 34.9553 24.5882 33.5914C24.8458 32.2818 24.7286 31.3578 24.2364 30.8193C23.7442 30.2808 22.7578 30.0116 21.2792 30.0116H18.6121L17.1587 37.3864M22.7532 27.2311C25.0051 27.2311 26.6477 27.8137 27.6804 28.9792C28.7129 30.1446 29.0237 31.7716 28.6117 33.8605C28.4422 34.7209 28.1555 35.5075 27.7517 36.2204C27.3479 36.9332 26.8196 37.5856 26.1674 38.177C25.3901 38.8943 24.5268 39.4052 23.5765 39.71C22.6264 40.0152 21.4163 40.1672 19.945 40.1672H16.6109L15.6876 44.8519H11.7951L15.2683 27.2323H22.7538" fill="white"/>
<path d="M37.8972 40.5288C37.7872 40.5288 37.6832 40.4804 37.6135 40.3968C37.5437 40.3131 37.5151 40.2034 37.5362 40.0969L39.0724 32.3003C39.2186 31.5589 39.1825 31.0266 38.971 30.8017C38.8416 30.6642 38.4526 30.4338 37.3027 30.4338H34.5195L32.5879 40.2351C32.5839 40.2557 32.5781 40.2757 32.5706 40.2952C32.5629 40.3147 32.5538 40.3335 32.5431 40.3514C32.5321 40.3694 32.5199 40.3862 32.5061 40.4021C32.4922 40.4179 32.4773 40.4325 32.4609 40.4458C32.4445 40.4591 32.4271 40.471 32.4087 40.4814C32.3903 40.4916 32.3712 40.5003 32.3511 40.5074C32.3313 40.5144 32.3108 40.5198 32.2901 40.5233C32.2691 40.5269 32.2481 40.5288 32.2268 40.5288H28.365C28.3378 40.5288 28.311 40.5258 28.2846 40.52C28.2581 40.5142 28.2326 40.5054 28.2082 40.4941C28.1836 40.4826 28.1606 40.4688 28.1391 40.4524C28.1178 40.436 28.0984 40.4174 28.0811 40.3968C28.064 40.3762 28.0492 40.3539 28.0368 40.3301C28.0246 40.3062 28.0151 40.2812 28.0086 40.2553C28.0018 40.2294 27.9982 40.203 27.9973 40.1764C27.9965 40.1496 27.9987 40.1232 28.0038 40.0969L31.4769 22.476C31.481 22.4554 31.4867 22.4356 31.4944 22.4161C31.5018 22.3964 31.5111 22.3778 31.5219 22.3597C31.5328 22.3419 31.545 22.3249 31.5589 22.3091C31.5726 22.2932 31.5877 22.2786 31.6041 22.2653C31.6203 22.2522 31.6378 22.2403 31.6562 22.23C31.6746 22.2197 31.6938 22.211 31.7136 22.2039C31.7337 22.1968 31.7541 22.1915 31.7749 22.188C31.7959 22.1844 31.8168 22.1826 31.838 22.1826H35.7C35.727 22.1826 35.7538 22.1855 35.7804 22.1913C35.8068 22.1971 35.8323 22.2059 35.8568 22.2172C35.8814 22.2287 35.9044 22.2425 35.9257 22.2589C35.9472 22.2753 35.9665 22.2939 35.9836 22.3145C36.001 22.3351 36.0157 22.3574 36.0279 22.3813C36.0402 22.4051 36.0496 22.4301 36.0564 22.456C36.0631 22.4819 36.0668 22.5081 36.0675 22.5349C36.0684 22.5617 36.0662 22.5882 36.0609 22.6144L35.2229 26.8675H38.2171C40.4979 26.8675 42.0447 27.2639 42.9457 28.0797C43.8652 28.912 44.1505 30.2426 43.7974 32.0356L42.1816 40.2354C42.1776 40.2559 42.1717 40.2759 42.1642 40.2954C42.1566 40.3149 42.1475 40.3337 42.1365 40.3518C42.1258 40.3696 42.1134 40.3866 42.0997 40.4024C42.0859 40.4183 42.0707 40.4329 42.0545 40.4462C42.0381 40.4595 42.0208 40.4712 42.0024 40.4815C41.984 40.4919 41.9648 40.5005 41.9448 40.5076C41.9249 40.5147 41.9045 40.52 41.8835 40.5237C41.8627 40.5271 41.8416 40.5289 41.8204 40.5289H37.8973L37.8972 40.5288Z" fill="black"/>
<path d="M35.7002 21.8194H31.8383C31.7959 21.8194 31.7537 21.8229 31.712 21.8302C31.6703 21.8373 31.6296 21.8478 31.5897 21.8621C31.5498 21.8761 31.5115 21.8934 31.4747 21.9142C31.4378 21.9348 31.403 21.9583 31.3704 21.9849C31.3376 22.0115 31.3075 22.0407 31.28 22.0724C31.2523 22.1041 31.2276 22.1379 31.206 22.1738C31.1844 22.2097 31.166 22.2472 31.1509 22.2862C31.1358 22.3253 31.1243 22.3654 31.1161 22.4064L27.6431 40.0271C27.638 40.0533 27.6343 40.0797 27.6321 40.1062C27.6298 40.1328 27.6292 40.1594 27.6299 40.186C27.6307 40.2128 27.6329 40.2392 27.6367 40.2657C27.6403 40.2921 27.6456 40.3182 27.6522 40.3441C27.6589 40.3699 27.6669 40.3953 27.6764 40.4203C27.6859 40.4452 27.6968 40.4697 27.7091 40.4934C27.7213 40.5172 27.7348 40.5402 27.7497 40.5626C27.7645 40.5849 27.7805 40.6064 27.7976 40.6268C27.8148 40.6474 27.8332 40.6671 27.8525 40.6857C27.8718 40.7043 27.8923 40.7218 27.9136 40.738C27.9349 40.7544 27.9572 40.7695 27.9801 40.7836C28.0033 40.7974 28.027 40.8102 28.0514 40.8215C28.0758 40.833 28.101 40.843 28.1265 40.8516C28.152 40.8603 28.1781 40.8674 28.2045 40.8733C28.2308 40.8791 28.2574 40.8835 28.2844 40.8864C28.3112 40.8893 28.3381 40.8908 28.3651 40.8908H32.2272C32.2694 40.8908 32.3116 40.8873 32.3533 40.88C32.395 40.8729 32.4359 40.8623 32.4756 40.8481C32.5155 40.8341 32.554 40.8167 32.5908 40.796C32.6276 40.7754 32.6623 40.7517 32.6951 40.7252C32.7277 40.6986 32.7578 40.6694 32.7855 40.6377C32.813 40.606 32.8376 40.5723 32.8593 40.5364C32.881 40.5005 32.8994 40.4629 32.9144 40.4239C32.9295 40.3849 32.9412 40.3448 32.9492 40.304L34.823 30.7958H37.3031C38.4511 30.7958 38.6919 31.0377 38.7016 31.0481C38.7712 31.1217 38.8629 31.4639 38.7116 32.2304L37.1755 40.0271C37.1704 40.0533 37.1667 40.0797 37.1645 40.1062C37.1623 40.1328 37.1616 40.1594 37.1623 40.186C37.1631 40.2128 37.1654 40.2392 37.1691 40.2657C37.1729 40.2921 37.178 40.3182 37.1848 40.3441C37.1913 40.3699 37.1993 40.3953 37.209 40.4203C37.2185 40.4452 37.2292 40.4697 37.2414 40.4934C37.2537 40.5172 37.2673 40.5402 37.2821 40.5626C37.2969 40.5849 37.3129 40.6064 37.33 40.627C37.3472 40.6474 37.3656 40.6671 37.3849 40.6857C37.4044 40.7043 37.4247 40.7218 37.446 40.738C37.4673 40.7544 37.4895 40.7695 37.5127 40.7836C37.5357 40.7974 37.5594 40.8102 37.5838 40.8215C37.6084 40.833 37.6334 40.843 37.6589 40.8516C37.6844 40.8603 37.7105 40.8674 37.7369 40.8733C37.7634 40.8791 37.79 40.8835 37.8168 40.8864C37.8436 40.8893 37.8705 40.8908 37.8977 40.8908H41.8208C41.8633 40.8908 41.9052 40.8873 41.9469 40.88C41.9887 40.8729 42.0295 40.8623 42.0694 40.8481C42.1094 40.8341 42.1476 40.8167 42.1845 40.796C42.2213 40.7754 42.2561 40.7517 42.2887 40.7252C42.3216 40.6986 42.3516 40.6694 42.3792 40.6377C42.4069 40.606 42.4315 40.5723 42.453 40.5364C42.4747 40.5005 42.4931 40.4629 42.5082 40.4239C42.5234 40.3849 42.5348 40.3448 42.543 40.304L44.1589 32.1039C44.538 30.1793 44.2137 28.7354 43.1953 27.8121C42.2233 26.9319 40.5951 26.5039 38.2176 26.5039H35.6695L36.4226 22.6831C36.4279 22.6568 36.4315 22.6304 36.4337 22.6038C36.4359 22.5774 36.4366 22.5508 36.4359 22.524C36.4352 22.4973 36.4328 22.4709 36.4292 22.4445C36.4253 22.418 36.4202 22.392 36.4135 22.3661C36.4069 22.3402 36.3987 22.3149 36.3892 22.2899C36.3798 22.2649 36.369 22.2405 36.3568 22.2166C36.3444 22.1929 36.3309 22.1698 36.3161 22.1475C36.3014 22.1253 36.2853 22.1038 36.2682 22.0832C36.2509 22.0626 36.2326 22.0431 36.2133 22.0245C36.1938 22.0059 36.1736 21.9884 36.1521 21.972C36.1307 21.9556 36.1087 21.9404 36.0855 21.9266C36.0626 21.9125 36.0387 21.8998 36.0143 21.8885C35.9898 21.8772 35.9649 21.8672 35.9393 21.8584C35.9136 21.8498 35.8878 21.8425 35.8613 21.8367C35.8349 21.8309 35.8083 21.8265 35.7815 21.8236C35.7545 21.8207 35.7275 21.8192 35.7005 21.8192M35.7005 22.5446L34.7774 27.2294H38.2178C40.3825 27.2294 41.8757 27.6021 42.6976 28.3462C43.5196 29.0905 43.7655 30.2976 43.4372 31.9658L41.8212 40.1654H37.8981L39.4342 32.369C39.6091 31.4821 39.5447 30.8771 39.2412 30.5546C38.9377 30.232 38.2916 30.0705 37.3036 30.0705H34.2165L32.2272 40.1654H28.3653L31.8383 22.5446H35.7002" fill="white"/>
<path d="M49.9083 37.0225C51.3874 37.0225 52.4918 36.7537 53.1903 36.2236C53.8816 35.6987 54.359 34.7896 54.6093 33.5211C54.8426 32.3355 54.7536 31.5077 54.3451 31.0611C53.9273 30.6048 53.0242 30.3733 51.6611 30.3733H49.2973L47.9866 37.0227H49.9081L49.9083 37.0225ZM42.1768 45.2134C42.0671 45.2134 41.963 45.1651 41.8931 45.0815C41.8581 45.0395 41.8339 44.9925 41.8204 44.94C41.8069 44.8875 41.8053 44.8346 41.8159 44.7816L45.2889 27.1607C45.2929 27.1401 45.2987 27.1203 45.3062 27.1008C45.3138 27.0811 45.323 27.0625 45.3339 27.0444C45.3447 27.0266 45.3571 27.0096 45.3707 26.9938C45.3846 26.9779 45.3997 26.9633 45.4159 26.95C45.4323 26.9367 45.4497 26.925 45.4681 26.9146C45.4865 26.9043 45.5058 26.8957 45.5257 26.8886C45.5457 26.8815 45.5661 26.8762 45.5869 26.8727C45.6079 26.8691 45.6288 26.8672 45.65 26.8672H53.1351C55.4879 26.8672 57.2386 27.496 58.3393 28.7396C59.4458 29.9884 59.7873 31.7343 59.3549 33.9285C59.1784 34.8225 58.8758 35.6526 58.4547 36.3962C58.0329 37.1403 57.4758 37.8288 56.7984 38.443C55.9872 39.1914 55.0692 39.7343 54.0722 40.0537C53.091 40.3689 51.831 40.5289 50.3271 40.5289H47.2939L46.4286 44.9201C46.4246 44.9406 46.4187 44.9606 46.4112 44.9801C46.4038 44.9996 46.3945 45.0184 46.3837 45.0364C46.3728 45.0543 46.3606 45.0713 46.3467 45.0871C46.3329 45.103 46.3179 45.1176 46.3015 45.1309C46.2851 45.1442 46.2678 45.156 46.2494 45.1662C46.231 45.1766 46.2118 45.1854 46.1918 45.1923C46.1719 45.1994 46.1515 45.2047 46.1305 45.2083C46.1097 45.2118 46.0886 45.2136 46.0674 45.2136H42.175L42.1768 45.2134Z" fill="black"/>
<path d="M49.6006 30.736H51.6613C53.3066 30.736 53.8783 31.0922 54.0724 31.3042C54.3949 31.6566 54.4556 32.3994 54.2483 33.4521C54.0157 34.6308 53.5842 35.4668 52.9663 35.936C52.3334 36.4166 51.3045 36.6601 49.9085 36.6601H48.4332L49.6006 30.736ZM53.1351 26.5046H45.6498C45.6075 26.5046 45.5654 26.5083 45.5237 26.5154C45.4821 26.5225 45.4413 26.5333 45.4014 26.5473C45.3614 26.5615 45.3232 26.5788 45.2863 26.5994C45.2495 26.6202 45.2147 26.6437 45.1821 26.6703C45.1494 26.697 45.1192 26.7261 45.0916 26.7577C45.0641 26.7894 45.0395 26.8233 45.0178 26.8592C44.9961 26.8951 44.9777 26.9325 44.9626 26.9715C44.9476 27.0105 44.936 27.0506 44.9279 27.0916L41.4546 44.7136C41.4495 44.7398 41.4458 44.7663 41.4436 44.7927C41.4414 44.8193 41.4407 44.8459 41.4414 44.8725C41.4422 44.8993 41.4445 44.9258 41.4482 44.9522C41.452 44.9786 41.4571 45.0047 41.4639 45.0306C41.4704 45.0565 41.4784 45.0818 41.4881 45.1068C41.4976 45.1317 41.5083 45.1562 41.5206 45.1799C41.5328 45.2038 41.5463 45.2267 41.5612 45.249C41.576 45.2714 41.592 45.2927 41.6091 45.3133C41.6263 45.3339 41.6447 45.3536 41.664 45.372C41.6833 45.3906 41.7038 45.4081 41.7251 45.4245C41.7464 45.4409 41.7686 45.456 41.7916 45.4701C41.8148 45.4839 41.8385 45.4967 41.8629 45.508C41.8873 45.5193 41.9123 45.5293 41.938 45.5381C41.9635 45.5466 41.9894 45.5539 42.0158 45.5598C42.0423 45.5656 42.0689 45.57 42.0957 45.5729C42.1227 45.5758 42.1496 45.5773 42.1766 45.5773H46.0693C46.1116 45.5773 46.1537 45.5738 46.1954 45.5667C46.2372 45.5594 46.2778 45.5488 46.3177 45.5346C46.3577 45.5206 46.3959 45.5033 46.4328 45.4825C46.4696 45.4619 46.5044 45.4384 46.537 45.4117C46.5698 45.3851 46.5999 45.356 46.6275 45.3242C46.6552 45.2925 46.6798 45.2588 46.7015 45.2229C46.723 45.187 46.7414 45.1494 46.7565 45.1104C46.7716 45.0714 46.7833 45.0315 46.7913 44.9905L47.5989 40.8926H50.3267C51.8692 40.8926 53.1679 40.7267 54.1862 40.3996C55.2333 40.0642 56.1969 39.4953 57.0496 38.7087C57.7549 38.0692 58.3355 37.3512 58.7756 36.5742C59.2158 35.7975 59.5321 34.9309 59.7158 33.999C60.1712 31.6892 59.8011 29.8397 58.616 28.5022C57.4425 27.1775 55.5984 26.5057 53.1351 26.5057M47.5406 37.3865H49.9082C51.4775 37.3865 52.6465 37.0952 53.4145 36.5119C54.1825 35.9288 54.701 34.9553 54.97 33.5914C55.2278 32.2818 55.1106 31.3578 54.6182 30.8193C54.126 30.2808 53.1396 30.0116 51.6611 30.0116H48.9941L47.5407 37.3864M53.1351 27.2311C55.3869 27.2311 57.0297 27.8137 58.0622 28.9792C59.0947 30.1446 59.4056 31.7716 58.9936 33.8605C58.824 34.7209 58.5373 35.5075 58.1335 36.2204C57.7299 36.9332 57.2016 37.5856 56.5494 38.177C55.7721 38.8943 54.9086 39.4052 53.9585 39.71C53.0082 40.0152 51.7982 40.1672 50.3271 40.1672H46.9928L46.0696 44.8519H42.177L45.65 27.2311H53.1353" fill="white"/>
<defs>
<radialGradient id="paint0_radial_5_103" cx="0" cy="0" r="1" gradientUnits="userSpaceOnUse" gradientTransform="translate(21.4612 23.6023) scale(44.5113 43.8931)">
<stop stop-color="#AEB2D5"/>
<stop offset="0.25" stop-color="#AEB2D5"/>
<stop offset="0.296875" stop-color="#AEB2D5"/>
<stop offset="0.300781" stop-color="#ADB1D4"/>
<stop offset="0.304688" stop-color="#ACB0D4"/>
<stop offset="0.308594" stop-color="#ACB0D3"/>
<stop offset="0.3125" stop-color="#ABAFD2"/>
<stop offset="0.316406" stop-color="#AAAED2"/>
<stop offset="0.320312" stop-color="#A9ADD1"/>
<stop offset="0.324219" stop-color="#A8ACD1"/>
<stop offset="0.328125" stop-color="#A7ABD0"/>
<stop offset="0.332031" stop-color="#A6AACF"/>
<stop offset="0.335938" stop-color="#A5A9CF"/>
<stop offset="0.339844" stop-color="#A4A9CE"/>
<stop offset="0.34375" stop-color="#A4A8CD"/>
<stop offset="0.347656" stop-color="#A3A7CD"/>
<stop offset="0.351562" stop-color="#A2A6CC"/>
<stop offset="0.355469" stop-color="#A1A5CB"/>
<stop offset="0.359375" stop-color="#A0A4CB"/>
<stop offset="0.363281" stop-color="#9FA3CA"/>
<stop offset="0.367188" stop-color="#9EA2C9"/>
<stop offset="0.371094" stop-color="#9DA1C9"/>
<stop offset="0.375" stop-color="#9CA1C8"/>
<stop offset="0.378906" stop-color="#9CA0C7"/>
<stop offset="0.382812" stop-color="#9B9FC7"/>
<stop offset="0.386719" stop-color="#9A9EC6"/>
<stop offset="0.390625" stop-color="#999DC5"/>
<stop offset="0.394531" stop-color="#989CC5"/>
<stop offset="0.398438" stop-color="#979BC4"/>
<stop offset="0.402344" stop-color="#969AC3"/>
<stop offset="0.40625" stop-color="#9599C3"/>
<stop offset="0.410156" stop-color="#9499C2"/>
<stop offset="0.414062" stop-color="#9498C1"/>
<stop offset="0.417969" stop-color="#9397C1"/>
<stop offset="0.421875" stop-color="#9296C0"/>
<stop offset="0.425781" stop-color="#9195BF"/>
<stop offset="0.429688" stop-color="#9094BF"/>
<stop offset="0.433594" stop-color="#8F93BE"/>
<stop offset="0.4375" stop-color="#8E92BD"/>
<stop offset="0.441406" stop-color="#8D91BD"/>
<stop offset="0.445312" stop-color="#8D91BC"/>
<stop offset="0.449219" stop-color="#8C90BB"/>
<stop offset="0.453125" stop-color="#8B8FBB"/>
<stop offset="0.457031" stop-color="#8A8EBA"/>
<stop offset="0.460938" stop-color="#898DB9"/>
<stop offset="0.464844" stop-color="#888CB9"/>
<stop offset="0.46875" stop-color="#878BB8"/>
<stop offset="0.472656" stop-color="#868AB7"/>
<stop offset="0.476562" stop-color="#858AB7"/>
<stop offset="0.480469" stop-color="#8589B6"/>
<stop offset="0.484375" stop-color="#8488B5"/>
<stop offset="0.488281" stop-color="#8387B5"/>
<stop offset="0.492188" stop-color="#8286B4"/>
<stop offset="0.496094" stop-color="#8185B3"/>
<stop offset="0.5" stop-color="#8084B3"/>
<stop offset="0.503906" stop-color="#7F83B2"/>
<stop offset="0.507812" stop-color="#7E82B1"/>
<stop offset="0.511719" stop-color="#7D82B1"/>
<stop offset="0.515625" stop-color="#7D81B0"/>
<stop offset="0.519531" stop-color="#7C80B0"/>
<stop offset="0.523438" stop-color="#7B7FAF"/>
<stop offset="0.527344" stop-color="#7A7EAE"/>
<stop offset="0.53125" stop-color="#797DAE"/>
<stop offset="0.535156" stop-color="#787CAD"/>
<stop offset="0.539062" stop-color="#777BAC"/>
<stop offset="0.542969" stop-color="#767AAC"/>
<stop offset="0.546875" stop-color="#767AAB"/>
<stop offset="0.550781" stop-color="#7579AA"/>
<stop offset="0.554688" stop-color="#7478AA"/>
<stop offset="0.558594" stop-color="#7377A9"/>
<stop offset="0.5625" stop-color="#7276A8"/>
<stop offset="0.566406" stop-color="#7175A8"/>
<stop offset="0.570312" stop-color="#7074A7"/>
<stop offset="0.574219" stop-color="#6F73A6"/>
<stop offset="0.578125" stop-color="#6E73A6"/>
<stop offset="0.582031" stop-color="#6E72A5"/>
<stop offset="0.585938" stop-color="#6D71A4"/>
<stop offset="0.589844" stop-color="#6C70A4"/>
<stop offset="0.59375" stop-color="#6B6FA3"/>
<stop offset="0.597656" stop-color="#6A6EA2"/>
<stop offset="0.601562" stop-color="#696DA2"/>
<stop offset="0.605469" stop-color="#686CA1"/>
<stop offset="0.609375" stop-color="#676BA0"/>
<stop offset="0.613281" stop-color="#666BA0"/>
<stop offset="0.617188" stop-color="#666A9F"/>
<stop offset="0.621094" stop-color="#65699E"/>
<stop offset="0.625" stop-color="#64689E"/>
<stop offset="0.628906" stop-color="#63679D"/>
<stop offset="0.632812" stop-color="#62669C"/>
<stop offset="0.636719" stop-color="#61659C"/>
<stop offset="0.640625" stop-color="#60649B"/>
<stop offset="0.644531" stop-color="#5F639A"/>
<stop offset="0.648438" stop-color="#5E639A"/>
<stop offset="0.652344" stop-color="#5E6299"/>
<stop offset="0.65625" stop-color="#5D6198"/>
<stop offset="0.660156" stop-color="#5C6098"/>
<stop offset="0.664062" stop-color="#5B5F97"/>
<stop offset="0.667969" stop-color="#5A5E96"/>
<stop offset="0.671875" stop-color="#595D96"/>
<stop offset="0.675781" stop-color="#585C95"/>
<stop offset="0.679688" stop-color="#575B94"/>
<stop offset="0.683594" stop-color="#575B94"/>
<stop offset="0.6875" stop-color="#565A93"/>
<stop offset="0.691406" stop-color="#555992"/>
<stop offset="0.695312" stop-color="#545892"/>
<stop offset="0.699219" stop-color="#535791"/>
<stop offset="0.703125" stop-color="#525691"/>
<stop offset="0.707031" stop-color="#515590"/>
<stop offset="0.710938" stop-color="#50548F"/>
<stop offset="0.714844" stop-color="#4F548F"/>
<stop offset="0.71875" stop-color="#4F538E"/>
<stop offset="0.722656" stop-color="#4E528D"/>
<stop offset="0.726562" stop-color="#4D518D"/>
<stop offset="0.730469" stop-color="#4C508C"/>
<stop offset="0.734375" stop-color="#4B4F8B"/>
<stop offset="0.738281" stop-color="#4A4E8B"/>
<stop offset="0.742188" stop-color="#494D8A"/>
<stop offset="0.746094" stop-color="#484C89"/>
<stop offset="1" stop-color="#484C89"/>
</radialGradient>
</defs>
</svg>
