<svg width="70" height="70" viewBox="0 0 70 70" fill="none" xmlns="http://www.w3.org/2000/svg">
<g clip-path="url(#clip0_8_211)">
<path d="M12.3958 5.64211e-06H57.6042C59.2324 -0.00156837 60.845 0.326206 62.3497 0.964571C63.8543 1.60293 65.2214 2.53936 66.3728 3.72024C67.5241 4.90113 68.4371 6.3033 69.0595 7.84651C69.682 9.38971 70.0015 11.0437 70 12.7137V57.2863C70.0015 58.9563 69.682 60.6103 69.0595 62.1535C68.4371 63.6967 67.5241 65.0989 66.3728 66.2798C65.2214 67.4606 63.8543 68.3971 62.3497 69.0354C60.845 69.6738 59.2324 70.0016 57.6042 70H12.3958C10.7676 70.0016 9.15497 69.6738 7.65034 69.0354C6.14572 68.3971 4.7786 67.4606 3.62724 66.2798C2.47587 65.0989 1.56286 63.6967 0.940456 62.1535C0.318051 60.6103 -0.00152916 58.9563 5.50105e-06 57.2863V12.7137C-0.00152916 11.0437 0.318051 9.38971 0.940456 7.84651C1.56286 6.3033 2.47587 4.90113 3.62724 3.72024C4.7786 2.53936 6.14572 1.60293 7.65034 0.964571C9.15497 0.326206 10.7676 -0.00156837 12.3958 5.64211e-06Z" fill="#000B1D"/>
<g clip-path="url(#clip1_8_211)">
<path d="M35 39.6285C37.6877 39.6285 39.8665 37.4779 39.8665 34.825C39.8665 32.172 37.6877 30.0214 35 30.0214C32.3123 30.0214 30.1335 32.172 30.1335 34.825C30.1335 37.4779 32.3123 39.6285 35 39.6285Z" fill="#61DAFB"/>
<path fill-rule="evenodd" clip-rule="evenodd" d="M11.7013 31.8276C10.5205 32.8797 10.0245 33.8945 10.0245 34.8249C10.0245 35.7554 10.5205 36.7701 11.7013 37.8222C12.8819 38.8742 14.6542 39.8731 16.941 40.735C21.5069 42.4557 27.8914 43.5436 35 43.5436C42.1086 43.5436 48.4931 42.4557 53.059 40.735C55.3458 39.8731 57.1181 38.8742 58.2987 37.8222C59.4795 36.7701 59.9755 35.7554 59.9755 34.8249C59.9755 33.8945 59.4795 32.8797 58.2987 31.8276C57.1181 30.7756 55.3458 29.7768 53.059 28.9149C48.4931 27.1941 42.1086 26.1063 35 26.1063C27.8914 26.1063 21.5069 27.1941 16.941 28.9149C14.6542 29.7768 12.8819 30.7756 11.7013 31.8276ZM16.1295 26.8171C21.0148 24.9759 27.6868 23.8607 35 23.8607C42.3132 23.8607 48.9852 24.9759 53.8705 26.8171C56.3092 27.7362 58.361 28.858 59.8232 30.1608C61.2852 31.4635 62.2505 33.0377 62.2505 34.8249C62.2505 36.6121 61.2852 38.1864 59.8232 39.4891C58.361 40.7919 56.3092 41.9137 53.8705 42.8328C48.9852 44.6739 42.3132 45.7892 35 45.7892C27.6868 45.7892 21.0148 44.6739 16.1295 42.8328C13.6908 41.9137 11.639 40.7919 10.1768 39.4891C8.71481 38.1864 7.74945 36.6121 7.74945 34.8249C7.74945 33.0377 8.71481 31.4635 10.1768 30.1608C11.639 28.858 13.6908 27.7362 16.1295 26.8171Z" fill="#61DAFB"/>
<path fill-rule="evenodd" clip-rule="evenodd" d="M25.9804 13.4101C24.4669 12.9268 23.3286 13.0101 22.5123 13.4753C21.6959 13.9406 21.0536 14.872 20.7209 16.4074C20.3882 17.9426 20.398 19.957 20.7852 22.3428C21.5584 27.1062 23.7962 33.1077 27.3505 39.1843C30.9048 45.2609 35.0515 50.1745 38.8442 53.2171C40.7438 54.741 42.5063 55.7566 44.0196 56.2398C45.5331 56.7231 46.6715 56.6398 47.4878 56.1746C48.3041 55.7093 48.9464 54.7779 49.2792 53.2425C49.6118 51.7073 49.6021 49.6929 49.2148 47.3071C48.4417 42.5437 46.2039 36.5422 42.6496 30.4656C39.0953 24.389 34.9485 19.4754 31.1559 16.4328C29.2563 14.9089 27.4937 13.8933 25.9804 13.4101ZM32.5907 14.6902C36.6487 17.9456 40.9632 23.0914 44.6198 29.3428C48.2764 35.5943 50.6339 41.8553 51.4612 46.9519C51.8741 49.4961 51.9158 51.8109 51.5038 53.7122C51.0919 55.6133 50.1933 57.2257 48.6253 58.1193C47.0572 59.0129 45.1934 58.9748 43.3194 58.3764C41.4452 57.7779 39.4351 56.5848 37.4093 54.9597C33.3514 51.7043 29.0369 46.5585 25.3803 40.3071C21.7237 34.0556 19.3661 27.7946 18.5389 22.698C18.1259 20.1538 18.0842 17.839 18.4962 15.9377C18.9082 14.0366 19.8067 12.4242 21.3748 11.5306C22.9428 10.637 24.8067 10.6751 26.6807 11.2735C28.5548 11.872 30.565 13.0651 32.5907 14.6902Z" fill="#61DAFB"/>
<path fill-rule="evenodd" clip-rule="evenodd" d="M49.2791 16.4074C48.9464 14.872 48.3041 13.9406 47.4877 13.4754C46.6714 13.0101 45.5331 12.9268 44.0196 13.4101C42.5062 13.8933 40.7437 14.9089 38.8441 16.4328C35.0514 19.4754 30.9047 24.389 27.3504 30.4656C23.7961 36.5422 21.5583 42.5438 20.7852 47.3071C20.3979 49.6929 20.3882 51.7073 20.7208 53.2426C21.0536 54.778 21.6959 55.7094 22.5122 56.1746C23.3285 56.6398 24.4669 56.7231 25.9804 56.2399C27.4937 55.7566 29.2562 54.7411 31.1558 53.2171C34.9485 50.1746 39.0952 45.2609 42.6495 39.1843C46.2038 33.1077 48.4416 27.1062 49.2148 22.3428C49.602 19.957 49.6118 17.9426 49.2791 16.4074ZM51.4611 22.6981C50.6339 27.7946 48.2763 34.0556 44.6197 40.3071C40.9631 46.5586 36.6486 51.7043 32.5907 54.9598C30.5649 56.5849 28.5548 57.7779 26.6806 58.3764C24.8066 58.9748 22.9428 59.0129 21.3747 58.1193C19.8066 57.2257 18.9081 55.6134 18.4962 53.7122C18.0842 51.811 18.1259 49.4961 18.5388 46.9519C19.3661 41.8553 21.7236 35.5943 25.3802 29.3429C29.0368 23.0914 33.3513 17.9456 37.4093 14.6902C39.435 13.0651 41.4452 11.872 43.3193 11.2735C45.1933 10.6751 47.0572 10.637 48.6252 11.5306C50.1933 12.4242 51.0918 14.0366 51.5038 15.9377C51.9158 17.839 51.8741 20.1539 51.4611 22.6981Z" fill="#61DAFB"/>
</g>
</g>
<defs>
<clipPath id="clip0_8_211">
<rect width="70" height="70" fill="white"/>
</clipPath>
<clipPath id="clip1_8_211">
<rect width="54.6" height="47.95" fill="white" transform="translate(7.70001 10.85)"/>
</clipPath>
</defs>
</svg>
